# xmcd
#
# Track frame offsets: 
#        150
#        19114
#        40704
#        61271
#        89105
#        114709
#        137281
#        162566
#        187928
#        202528
#        225801
#
# Disc length: 3211 seconds
#
# Revision: 0
# Processed by: cddbd v1.5.1PL2 Copyright (c) Steve Scherf et al.
# Submitted via: ExactAudioCopy v0.95b1
#
DISCID=7f0c890b
DTITLE=Robert Cray - London 1988
DYEAR=1900
DGENRE=
TTITLE0=I Guess I Showed Her
TTITLE1=Foul Play
TTITLE2=Don't Be Afraid Of The Dark
TTITLE3=The Last Time (I Get Burned Like This)
TTITLE4=At Last
TTITLE5=Don't You Even Care
TTITLE6=Still Around
TTITLE7=Night Patrol
TTITLE8=I Can't Go Home (faded out)
TTITLE9=Rolling Stones \\ Robert Cray - Stop Breaking Down
TTITLE10=Love Struck Baby
EXTD=
EXTT0=
EXTT1=
EXTT2=
EXTT3=
EXTT4=
EXTT5=
EXTT6=
EXTT7=
EXTT8=
EXTT9=
EXTT10=
PLAYORDER=
